<?xml version="1.0" encoding="UTF-8" standalone="no"?>
<!-- Creator: CorelDRAW 2026 -->

<svg
   xml:space="preserve"
   width="160.28481mm"
   height="46.2145mm"
   version="1.1"
   style="clip-rule:evenodd;fill-rule:evenodd;image-rendering:optimizeQuality;shape-rendering:geometricPrecision;text-rendering:geometricPrecision"
   viewBox="0 0 16028.481 4621.45"
   id="svg2"
   sodipodi:docname="ANTIKA_modificaciones_web_claro.svg"
   inkscape:version="1.4.4 (1:1.4.4+202605061436+dcaf3e7d9e)"
   xmlns:inkscape="http://www.inkscape.org/namespaces/inkscape"
   xmlns:sodipodi="http://sodipodi.sourceforge.net/DTD/sodipodi-0.dtd"
   xmlns="http://www.w3.org/2000/svg"
   xmlns:svg="http://www.w3.org/2000/svg"><sodipodi:namedview
   id="namedview2"
   pagecolor="#ffffff"
   bordercolor="#999999"
   borderopacity="1"
   inkscape:showpageshadow="0"
   inkscape:pageopacity="0"
   inkscape:pagecheckerboard="0"
   inkscape:deskcolor="#d1d1d1"
   inkscape:document-units="mm"
   inkscape:zoom="1.5782396"
   inkscape:cx="283.54377"
   inkscape:cy="153.96902"
   inkscape:window-width="2514"
   inkscape:window-height="1410"
   inkscape:window-x="1966"
   inkscape:window-y="480"
   inkscape:window-maximized="1"
   inkscape:current-layer="_2682916773520" />
 <defs
   id="defs1">
  <style
   type="text/css"
   id="style1">
   <![CDATA[
    .fil1 {fill:#2B2A29}
    .fil0 {fill:#2B2A29;fill-rule:nonzero}
   ]]>
  </style>
 </defs>
 <g
   id="Capa_x0020_1"
   inkscape:label="Capa 1"
   inkscape:groupmode="layer"
   transform="translate(-1978.15,-2193.54)">
  <metadata
   id="CorelCorpID_0Corel-Layer" />
  <g
   id="_2682916773520">
   
   <path
   class="fil0"
   d="m 5707,3207.44 c -45.52,44.56 -116.39,41.43 -158.28,-6.99 -41.89,-48.43 -38.95,-123.83 6.58,-168.39 l 576.63,-562.54 c 21.54,-21.08 48.73,-31.48 75.86,-31.47 v -0.25 h 5524.69 c -10.17,38.09 -15.6,78.11 -15.6,119.41 0,41.29 5.43,81.32 15.6,119.41 h -321.47 v 3899.55 h 184.18 c 61.98,0 112.25,53.46 112.25,119.41 0,65.94 -50.27,119.41 -112.25,119.41 h -592.85 c -61.98,0 -112.24,-53.47 -112.24,-119.41 0,-65.95 50.26,-119.41 112.24,-119.41 h 184.19 V 2676.62 H 6251.12 Z m 6918.93,-769.64 h 4621.65 c 31.05,0 59.15,13.4 79.47,35.08 l 642.48,614.5 c 46,44.04 49.74,119.43 8.34,168.37 -41.41,48.94 -112.29,52.91 -158.29,8.86 l -614.77,-587.99 h -4578.88 c 10.16,-38.09 15.6,-78.12 15.6,-119.41 0,-41.3 -5.44,-81.32 -15.6,-119.41 z m -4949.62,1096.97 446.88,1902.6 447.89,-110.55 c 60.29,-14.68 120.36,25.42 134.16,89.55 13.8,64.14 -23.9,128.06 -84.18,142.73 l -443.56,109.49 213.17,907.58 h 216.17 c 61.98,0 112.24,53.46 112.24,119.41 0,65.94 -50.26,119.41 -112.24,119.41 h -592.85 c -61.98,0 -112.24,-53.47 -112.24,-119.41 0,-65.95 50.26,-119.41 112.24,-119.41 h 145.63 l -200.51,-853.67 -527.79,130.27 c -17.88,4.36 -35.74,3.89 -52.37,-0.59 l -525.38,-129.68 -200.51,853.67 h 145.62 c 61.98,0 112.24,53.46 112.24,119.41 0,65.94 -50.26,119.41 -112.24,119.41 h -592.86 c -61.98,0 -112.24,-53.47 -112.24,-119.41 0,-65.95 50.26,-119.41 112.24,-119.41 H 6422 L 6635.17,5668.6 6191.6,5559.1 c -60.29,-14.67 -97.99,-78.59 -84.19,-142.73 13.8,-64.13 73.88,-104.23 134.17,-89.55 l 447.91,110.56 446.87,-1902.61 h -333.83 c -61.98,0 -112.24,-53.46 -112.24,-119.41 0,-65.95 50.26,-119.41 112.24,-119.41 h 1207.59 c 61.98,0 112.24,53.46 112.24,119.41 0,65.95 -50.26,119.41 -112.24,119.41 z m 228.5,1956.51 -459.55,-1956.51 h -77.85 l -459.54,1956.51 498.46,123.04 z M 9192.33,3295.97 c 98.95,-1.33 198.94,0 298,0 61.98,0 112.25,53.47 112.25,119.41 0,65.95 -50.27,119.41 -112.25,119.41 h -132.6 l 925.7,2526.69 V 3534.79 h -184.18 c -61.98,0 -112.25,-53.46 -112.25,-119.41 0,-65.94 50.27,-119.41 112.25,-119.41 h 592.85 c 61.98,0 112.24,53.47 112.24,119.41 0,65.95 -50.26,119.41 -112.24,119.41 h -184.19 v 3041.38 h 184.19 c 61.98,0 112.24,53.46 112.24,119.41 0,65.94 -50.26,119.41 -112.24,119.41 h -592.85 c -61.98,0 -112.25,-53.47 -112.25,-119.41 0,-65.95 50.27,-119.41 112.25,-119.41 h 132.6 L 9306.14,4049.46 v 2526.71 h 184.19 c 61.98,0 112.25,53.46 112.25,119.41 0,65.94 -50.27,119.41 -112.25,119.41 h -592.86 c -61.98,0 -112.24,-53.47 -112.24,-119.41 0,-65.95 50.26,-119.41 112.24,-119.41 h 184.19 V 3534.79 h -184.19 c -61.98,0 -112.24,-53.46 -112.24,-119.41 0,-65.94 50.26,-119.41 112.24,-119.41 z m 7163.34,238.8 446.87,1902.6 447.89,-110.55 c 60.29,-14.68 120.36,25.42 134.16,89.55 13.8,64.14 -23.9,128.06 -84.18,142.73 l -443.56,109.49 213.17,907.58 h 216.18 c 61.98,0 112.25,53.46 112.25,119.41 0,65.94 -50.27,119.41 -112.25,119.41 h -592.86 c -61.98,0 -112.24,-53.47 -112.24,-119.41 0,-65.95 50.26,-119.41 112.24,-119.41 h 145.63 l -200.51,-853.67 -527.78,130.27 c -17.88,4.36 -35.74,3.89 -52.37,-0.59 l -525.38,-129.68 -200.51,853.67 h 145.62 c 61.98,0 112.25,53.46 112.25,119.41 0,65.94 -50.27,119.41 -112.25,119.41 h -592.86 c -61.98,0 -112.24,-53.47 -112.24,-119.41 0,-65.95 50.26,-119.41 112.24,-119.41 h 216.19 l 213.16,-907.57 -443.57,-109.5 c -60.29,-14.67 -97.99,-78.59 -84.19,-142.73 13.8,-64.13 73.88,-104.23 134.17,-89.55 l 447.91,110.56 446.87,-1902.61 h -333.84 c -61.98,0 -112.24,-53.46 -112.24,-119.41 0,-65.95 50.26,-119.41 112.24,-119.41 h 1207.6 c 61.98,0 112.25,53.46 112.25,119.41 0,65.95 -50.27,119.41 -112.25,119.41 z m 228.49,1956.51 -459.55,-1956.51 h -77.84 l -459.54,1956.51 498.46,123.04 z M 12177.65,3295.97 c 98.95,-1.33 198.92,0 297.99,0 61.98,0 112.24,53.47 112.24,119.41 0,65.95 -50.26,119.41 -112.24,119.41 h -184.18 v 3041.38 h 184.18 c 61.98,0 112.24,53.46 112.24,119.41 0,65.94 -50.26,119.41 -112.24,119.41 h -592.86 c -61.98,0 -112.24,-53.47 -112.24,-119.41 0,-65.95 50.26,-119.41 112.24,-119.41 h 184.19 V 3534.79 h -184.19 c -61.98,0 -112.24,-53.46 -112.24,-119.41 0,-65.94 50.26,-119.41 112.24,-119.41 z m 896.02,0 c 98.95,-1.33 198.94,0 298,0 61.98,0 112.24,53.47 112.24,119.41 0,65.95 -50.26,119.41 -112.24,119.41 h -184.19 v 1503.12 l 880.5,-1503.12 h -94.46 c -61.98,0 -112.24,-53.46 -112.24,-119.41 0,-65.94 50.26,-119.41 112.24,-119.41 h 592.86 c 61.98,0 112.24,53.47 112.24,119.41 0,65.95 -50.26,119.41 -112.24,119.41 h -234.34 l -1114.11,1901.91 1097.28,1139.47 h 251.17 c 61.98,0 112.24,53.46 112.24,119.41 0,65.94 -50.26,119.41 -112.24,119.41 h -592.86 c -61.98,0 -112.24,-53.47 -112.24,-119.41 0,-65.95 50.26,-119.41 112.24,-119.41 h 21.2 l -807.24,-838.3 v 838.3 h 184.19 c 61.98,0 112.24,53.46 112.24,119.41 0,65.94 -50.26,119.41 -112.24,119.41 h -592.86 c -61.98,0 -112.24,-53.47 -112.24,-119.41 0,-65.95 50.26,-119.41 112.24,-119.41 h 184.18 V 3534.79 h -184.18 c -61.98,0 -112.24,-53.46 -112.24,-119.41 0,-65.94 50.26,-119.41 112.24,-119.41 z M 12179.2,2193.54 c 96.84,0 185.08,39.82 249.46,104.19 66.14,66.14 107.05,157.87 107.05,259.48 0,101.6 -40.91,193.34 -107.06,259.47 -64.37,64.37 -152.6,104.21 -249.45,104.21 -96.82,0 -185.08,-39.84 -249.45,-104.21 -66.13,-66.13 -107.06,-157.87 -107.06,-259.47 0,-101.61 40.92,-193.34 107.05,-259.48 64.39,-64.38 152.63,-104.19 249.46,-104.19 z m 96,277.7 c -24.02,-24.01 -57.93,-38.88 -96,-38.88 -38.07,0 -71.97,14.87 -96,38.88 -22.26,22.26 -36.02,52.69 -36.02,85.97 0,33.28 13.77,63.7 36.03,85.96 24.02,24.02 57.93,38.89 95.99,38.89 38.06,0 71.98,-14.87 95.99,-38.89 22.26,-22.25 36.04,-52.68 36.04,-85.96 0,-33.28 -13.77,-63.71 -36.03,-85.97 z"
   id="path1"
   style="fill:#f4f1ec;fill-opacity:1" /><path
   class="fil1"
   d="m 3383.55,2787.52 c 135.36,0 245.09,109.73 245.09,245.09 0,135.35 -109.73,245.08 -245.09,245.08 -135.35,0 -245.09,-109.73 -245.09,-245.08 0,-135.36 109.74,-245.09 245.09,-245.09 z M 2383.5,3636.19 c -43.15,32.45 -102.88,21.53 -133.38,-24.38 -30.51,-45.91 -20.24,-109.45 22.91,-141.9 l 151.18,-113.87 c 16.8,-12.63 36.11,-18.69 55.23,-18.67 v -0.52 h 1808.23 c 24.17,0 46.28,9.5 63.18,25.19 l 143.22,107.87 c 43.16,32.45 53.43,95.99 22.92,141.9 -30.5,45.91 -90.23,56.83 -133.38,24.38 l -125.7,-94.68 h -639.28 l 397.88,1693.99 400.11,-98.77 c 51.66,-12.58 103.15,21.78 114.97,76.75 11.83,54.95 -20.48,109.73 -72.14,122.31 l -396.4,97.84 190.37,810.52 h 194.17 c 53.11,0 96.18,45.81 96.18,102.33 0,56.51 -43.07,102.33 -96.18,102.33 h -525.46 c -53.11,0 -96.18,-45.82 -96.18,-102.33 0,-56.52 43.07,-102.33 96.18,-102.33 h 133.29 l -179.52,-764.32 -396.16,97.79 v 666.53 h 166.54 c 53.11,0 96.19,45.81 96.19,102.33 0,56.51 -43.08,102.33 -96.19,102.33 h -525.45 c -53.12,0 -96.19,-45.82 -96.19,-102.33 0,-56.52 43.07,-102.33 96.19,-102.33 h 166.53 v -666.53 l -396.14,-97.78 -179.51,764.31 h 133.28 c 53.12,0 96.19,45.81 96.19,102.33 0,56.51 -43.07,102.33 -96.19,102.33 h -525.46 c -53.1,0 -96.18,-45.82 -96.18,-102.33 0,-56.52 43.08,-102.33 96.18,-102.33 h 194.18 l 190.37,-810.51 -396.42,-97.85 c -51.66,-12.58 -83.97,-67.36 -72.14,-122.31 11.82,-54.97 63.3,-89.33 114.97,-76.75 l 400.13,98.77 397.87,-1693.99 h -639.3 z m 1096.24,156.96 V 5368 l 349.62,-86.31 z M 3287.36,5368 V 3793.27 L 2937.76,5281.7 Z M 2201.22,2444.78 h 2364.73 c 60.07,0 115.1,24.99 155.37,65.26 41.77,41.76 67.7,99.78 67.7,163.96 v 3911.76 c 0,64.17 -25.93,122.21 -67.7,163.97 -40.27,40.27 -95.3,65.26 -155.37,65.26 H 2201.22 c -60.07,0 -115.1,-24.99 -155.37,-65.26 -41.76,-41.76 -67.7,-99.8 -67.7,-163.97 V 2674 c 0,-64.18 25.94,-122.2 67.7,-163.96 40.25,-40.26 95.29,-65.26 155.37,-65.26 z m 2364.73,204.66 H 2201.22 c -9.7,0 -18.13,3.56 -23.86,9.29 -4.21,4.21 -6.84,9.66 -6.84,15.27 v 3911.76 c 0,5.62 2.63,11.07 6.84,15.28 5.73,5.73 14.15,9.29 23.86,9.29 h 2364.73 c 9.71,0 18.13,-3.56 23.86,-9.29 4.21,-4.21 6.84,-9.66 6.84,-15.28 V 2674 c 0,-5.61 -2.63,-11.06 -6.84,-15.27 -5.73,-5.73 -14.15,-9.29 -23.86,-9.29 z"
   id="path2"
   style="fill:#f4f1ec;fill-opacity:1"
   inkscape:export-filename="favicon.png"
   inkscape:export-xdpi="37.197292"
   inkscape:export-ydpi="37.197292" />
  </g>
 </g>
</svg>
